<svg xmlns="http://www.w3.org/2000/svg" width="768" height="175.66118052830015" viewBox="0 0 1089.5194091796875 249.20086669921875" version="1.1">
<g transform="translate(-55.17243957519531,-475.2869873046875)"><path d="M 115.624 496.575 C 87.415 505.593, 73.564 543.886, 75.321 608 C 76.761 660.545, 87.024 689.602, 108.197 701.083 C 114.338 704.412, 114.795 704.500, 126 704.487 C 137.837 704.473, 137.898 704.460, 160.500 697.379 C 168.443 694.891, 187.280 685.475, 190.691 682.288 L 193.806 679.379 194.192 634.439 C 194.404 609.723, 194.416 588.982, 194.220 588.349 C 193.588 586.317, 189.964 585.885, 165.603 584.933 C 148.166 584.252, 141.340 584.303, 140.353 585.122 C 138.281 586.842, 138.395 625.253, 140.477 626.981 C 141.527 627.852, 143.989 628.003, 148.977 627.502 L 156 626.797 155.986 634.649 C 155.979 638.967, 155.696 643.533, 155.358 644.795 C 154.462 648.141, 147.675 651.217, 140 651.756 C 134.400 652.150, 133.115 651.908, 130.722 650.012 C 126.916 646.996, 124.278 641.448, 123.049 633.871 C 121.702 625.568, 121.700 582.389, 123.046 572.322 C 125.782 551.869, 131.664 543.084, 140.641 546.047 C 144.972 547.476, 146.718 550.079, 148.117 557.188 C 149.450 563.964, 147.227 563.209, 172.469 565.454 C 183.090 566.398, 189.790 566.610, 190.380 566.020 C 190.898 565.502, 191.218 561.798, 191.091 557.789 C 190.298 532.789, 179.319 512.524, 161.861 503.837 C 149.284 497.578, 142.635 495.753, 131 495.366 C 123.425 495.114, 119.142 495.451, 115.624 496.575 M 370 531.632 C 354.105 534.119, 347.119 536.938, 339.731 543.848 C 330.186 552.777, 325.252 563.932, 322.476 582.865 C 319.689 601.869, 322.581 622.808, 330.215 638.898 C 338.488 656.333, 350.976 663.961, 371.292 663.988 C 383.913 664.005, 393.832 661.697, 405.583 656.008 C 417.071 650.447, 424.388 643.597, 429.333 633.771 C 432.189 628.097, 435.308 614.159, 434.041 612.729 C 433.666 612.305, 423.943 612.080, 412.436 612.229 L 391.514 612.500 389.217 618.945 C 387.954 622.490, 386.395 626.025, 385.751 626.799 C 381.910 631.428, 374.547 629.668, 371.422 623.373 C 369.719 619.941, 369.500 617.221, 369.500 599.500 C 369.500 577.709, 370.451 571.821, 374.652 567.621 C 377.503 564.770, 381.311 563.864, 385.017 565.156 C 388.261 566.287, 389.733 568.826, 391.335 576.054 L 392.542 581.500 397.521 582.162 C 404.816 583.133, 431.280 583.109, 432.823 582.130 C 433.893 581.452, 433.936 579.775, 433.050 573.396 C 430.269 553.389, 417.232 539.253, 396.814 534.108 C 389.493 532.262, 374.701 530.897, 370 531.632 M 440 543.278 L 440 553.813 449.250 554.392 C 454.337 554.710, 465.025 555.089, 473 555.235 L 487.500 555.500 487.786 545.778 C 488.125 534.253, 489.947 535.374, 469.500 534.531 C 461.800 534.213, 452.012 533.680, 447.750 533.347 L 440 532.742 440 543.278 M 1067 533.707 C 1050.044 535.581, 1029.648 544.221, 1020.435 553.435 C 1011.383 562.487, 1007.726 572.692, 1007.692 589 C 1007.660 603.665, 1011.242 613.976, 1019.188 622.094 C 1025.150 628.186, 1032.828 631.948, 1051.631 637.992 C 1060.503 640.844, 1069.193 644.047, 1070.941 645.110 C 1074.879 647.505, 1077 652.372, 1077 659.013 C 1077 663.131, 1076.515 664.576, 1074.434 666.657 C 1072.367 668.724, 1071.258 669.102, 1068.736 668.597 C 1061.988 667.248, 1057.010 661.373, 1057.004 654.750 C 1057.001 652.423, 1056.526 650.997, 1055.750 650.992 C 1055.063 650.988, 1044.402 649.863, 1032.060 648.492 C 1019.718 647.122, 1009.191 646, 1008.667 646 C 1008.098 646, 1007.973 648.464, 1008.355 652.122 C 1009.198 660.191, 1014.062 669.950, 1020.554 676.600 C 1026.311 682.496, 1039.788 691.615, 1049.193 695.977 C 1067.035 704.252, 1089.023 705.942, 1101 699.958 C 1109.852 695.535, 1118.307 683.035, 1122.261 668.525 C 1126.322 653.624, 1125.108 623.989, 1120.010 613.562 C 1117.114 607.638, 1110.957 599.888, 1107.063 597.263 C 1102.872 594.439, 1092.765 591.255, 1083.500 589.840 C 1067.420 587.384, 1065.666 586.866, 1062.410 583.610 C 1058.423 579.623, 1057.232 573.773, 1059.368 568.663 C 1062.103 562.116, 1069.924 562.513, 1073.500 569.381 L 1075.500 573.223 1089 572.594 C 1096.425 572.247, 1106.174 571.460, 1110.664 570.843 L 1118.829 569.721 1118.287 566.110 C 1116.475 554.036, 1108.311 540.832, 1100 536.536 C 1094.150 533.512, 1079.856 532.286, 1067 533.707 M 240.382 547.969 C 220.722 552.179, 205.078 571.119, 201.382 595.187 C 198.487 614.042, 200.973 638.577, 207.151 652.113 C 212.434 663.688, 225.052 674.161, 237.042 676.924 C 261.380 682.532, 293.033 666.566, 306.451 641.913 C 315.128 625.970, 315.501 597.181, 307.250 580.221 C 301.636 568.681, 285.705 555.131, 272.252 550.453 C 264.628 547.801, 247.425 546.461, 240.382 547.969 M 936 548.451 C 927.337 550.262, 919.653 553.237, 912.440 557.571 C 904.747 562.194, 902.522 564.344, 898.928 570.625 C 896.504 574.863, 892 588.861, 892 592.160 C 892 592.622, 902.067 593, 914.371 593 L 936.742 593 937.433 586.893 C 937.949 582.331, 938.746 580.163, 940.583 578.326 C 945.896 573.013, 951.214 577.967, 951.806 588.782 C 952.457 600.693, 948.119 604.168, 931.031 605.422 C 918.149 606.367, 905.449 608.217, 902 609.651 C 893.281 613.276, 888.825 620.824, 888.218 633 C 887.875 639.883, 888.210 642.737, 889.981 648 C 893.868 659.552, 903.128 669.127, 913.441 672.258 C 915.673 672.935, 921.181 673.406, 925.679 673.304 C 932.312 673.152, 935.288 672.522, 941.428 669.966 C 947.724 667.344, 949.398 666.143, 951.379 662.821 L 953.761 658.827 955.448 666.409 C 956.375 670.580, 957.700 674.557, 958.391 675.248 C 959.610 676.467, 998.585 683.752, 999.414 682.916 C 999.641 682.687, 999.380 680.475, 998.835 678 C 998.290 675.525, 997.660 658.875, 997.436 641 C 996.977 604.451, 995.819 588.416, 992.873 577.783 C 989.170 564.421, 982.564 555.410, 972.709 550.281 C 967.961 547.809, 966.394 547.548, 955 547.331 C 947.380 547.186, 939.962 547.623, 936 548.451 M 842.995 555.339 C 836.558 557.093, 829.751 562.136, 823.802 569.560 L 818.645 575.995 815.836 571.748 C 812.019 565.976, 803.727 559.273, 798.743 557.931 C 794.219 556.713, 786.939 557.448, 783.013 559.520 C 779.869 561.179, 771.078 570.265, 767.778 575.266 L 765.293 579.033 762.965 570.369 L 760.637 561.705 746.568 562.349 C 738.831 562.703, 729.462 562.994, 725.750 562.996 L 719 563 719 607.345 L 719 651.689 733.750 652.358 C 741.862 652.725, 752.888 653.313, 758.250 653.663 L 768 654.301 768 627.605 L 768 600.909 770.455 598.455 C 773.410 595.500, 774.091 595.444, 777.139 597.910 L 779.500 599.821 779.795 627.373 L 780.090 654.926 783.295 655.421 C 785.058 655.692, 793.250 656.410, 801.500 657.015 C 809.750 657.621, 817.962 658.365, 819.750 658.669 L 823 659.223 823 631.176 C 823 615.751, 823.428 602.003, 823.952 600.626 C 825.088 597.638, 828.373 595.666, 830.886 596.464 C 834.584 597.638, 835 601.125, 835 630.986 L 835 659.877 839.250 660.462 C 846.135 661.409, 878.851 665, 880.595 665 C 882.043 665, 882.151 661.305, 881.728 626.250 C 881.224 584.445, 880.637 579.175, 875.512 570.430 C 868.671 558.757, 854.534 552.196, 842.995 555.339 M 441.556 563.239 C 441.342 563.932, 440.918 584.694, 440.615 609.376 L 440.063 654.253 447.781 653.593 C 452.027 653.230, 462.432 652.524, 470.905 652.024 C 481.675 651.389, 486.560 650.722, 487.140 649.808 C 488.132 648.243, 488.270 600.545, 487.343 579.139 C 486.722 564.794, 486.571 563.936, 484.593 563.543 C 483.442 563.314, 473.375 562.868, 462.223 562.552 C 446.376 562.103, 441.861 562.253, 441.556 563.239 M 560.994 562.934 C 554.295 564.972, 545.983 571.952, 544.541 576.750 C 543.423 580.472, 542.509 579.369, 540.194 571.500 L 537.988 564 517.483 564 L 496.979 564 497.239 607.250 L 497.500 650.500 509.500 650.230 C 516.100 650.081, 526.337 649.695, 532.250 649.371 L 543 648.781 543 624.946 C 543 601.432, 543.031 601.075, 545.329 598.404 C 547.203 596.226, 548.186 595.830, 550.364 596.377 C 551.972 596.780, 553.462 598.086, 554.035 599.593 C 554.566 600.988, 555 612.685, 555 625.584 L 555 649.038 577.250 648.769 L 599.500 648.500 599.765 618.057 C 600.086 581.142, 599.814 579.651, 591.178 571.024 C 587.293 567.143, 583.943 564.822, 580.572 563.676 C 575.518 561.957, 565.458 561.576, 560.994 562.934 M 639.170 564.507 C 626.846 568.242, 623.722 570.055, 614.773 578.662 C 608.250 584.935, 605.083 591.831, 604.058 601.995 C 602.580 616.665, 606.129 627.394, 615.483 636.526 C 621.241 642.148, 627.926 645.702, 638.876 648.963 C 650.046 652.290, 668.225 652.118, 681.489 648.561 C 693.428 645.359, 698.386 643.258, 702.799 639.528 C 706.672 636.255, 710.689 628.797, 711.580 623.227 C 712.146 619.684, 711.973 619.225, 709.855 618.658 C 708.560 618.311, 698.425 618.021, 687.333 618.014 L 667.167 618 665.770 622.189 C 664.073 627.281, 659.737 630.955, 657.264 629.395 C 653.671 627.128, 651.754 623.123, 651.021 616.353 C 650.613 612.584, 650.490 609.127, 650.747 608.671 C 651.005 608.216, 665.117 608.168, 682.108 608.566 L 713 609.290 712.985 605.395 C 712.928 590.254, 704.261 576.220, 690.736 569.366 C 679.917 563.884, 675.274 562.792, 661 562.376 C 648.770 562.019, 646.716 562.219, 639.170 564.507 M 255.580 583.563 C 252.047 587.096, 250.551 595.808, 250.525 613 C 250.490 635.751, 253.326 644.995, 259.477 642.192 C 263.027 640.575, 265.091 632.734, 265.721 618.464 C 266.303 605.307, 264.909 591.659, 262.510 587.018 C 260.402 582.942, 257.598 581.545, 255.580 583.563 M 655.672 584.978 C 653.170 587.951, 651.017 593.613, 651.006 597.250 C 651.001 598.785, 652.075 598.998, 659.750 598.985 C 664.563 598.976, 669.004 598.639, 669.621 598.235 C 670.443 597.695, 670.412 596.216, 669.504 592.667 C 666.888 582.446, 660.698 579.005, 655.672 584.978 M 946.315 620.094 C 940.316 622.854, 938 626.221, 938 632.185 C 938 636.939, 940.108 642.725, 942.390 644.235 C 944.590 645.691, 948.953 644.966, 950.961 642.811 C 952.669 640.978, 953 639.293, 953 632.436 C 953 623.967, 952.212 617.938, 951.125 618.084 C 950.781 618.131, 948.617 619.035, 946.315 620.094" stroke="none" fill="#8a1717" fill-rule="evenodd"/></g></svg>